<svg xmlns="http://www.w3.org/2000/svg" viewBox="0 0 841.88 366.63"><defs><style>.cls-1{fill:aqua;}</style></defs><g id="Livello_2" data-name="Livello 2"><g id="Livello_1-2" data-name="Livello 1"><path d="M8.56,330.78c9.28,5.75,25.48,12,40.81,12,22.49,0,32.91-11,32.91-25,0-14.7-9-22.4-31.47-30.77-30.59-11-45.08-27.53-45-47.67C5.81,212.21,28,190,64.39,190c17.23,0,32.07,4.63,41.48,10.34l-7.65,22.22a66.92,66.92,0,0,0-34.74-9.9c-18.17,0-28,10.4-28,23.07,0,13.91,10,20.12,32.15,28.67,29.19,10.79,44.35,25.4,44.43,50.5,0,29.79-23.33,50.65-63.34,50.65-18.53,0-35.67-4.76-47.58-11.72Z"/><path d="M2.17,353.41c12.57,7.15,29.46,11.23,46.5,11.23,37.93,0,62.43-19.52,62.43-49.74-.07-23.47-13.18-38.32-43.84-49.65-22.64-8.72-32.74-15.05-32.74-29.52,0-11.93,9-24,29-24a67.61,67.61,0,0,1,34.25,9.44l7-20.46c-10.51-6.17-25.54-9.84-40.38-9.84-34,0-57.67,19.9-57.67,48.38-.08,20.45,14.85,36.2,44.4,46.81,23.67,8.81,32.06,17.09,32.06,31.63,0,16.24-12.64,25.94-33.81,25.94-15.49,0-31.13-6.07-40.31-11.52Zm46.5,13c-17.63,0-35.14-4.31-48-11.83L0,354.25,8.05,329.4,9,330c9.51,5.89,25.67,11.83,40.34,11.83,20,0,32-9,32-24.12,0-13.79-7.79-21.34-30.88-29.93-30.33-10.9-45.67-27.22-45.58-48.51,0-29.55,24.46-50.19,59.48-50.19,15.69,0,31,3.82,42,10.47l.62.38-8.26,24-1-.6a65.69,65.69,0,0,0-34.26-9.76c-16.24,0-27.15,8.91-27.15,22.16,0,13.41,9.74,19.42,31.57,27.82,31.47,11.64,44.93,27,45,51.35,0,31.32-25.21,51.55-64.24,51.55"/><rect x="151.57" y="193.82" width="30.64" height="168.08"/><path d="M152.48,361h28.83V194.72H152.48Zm30.64,1.81H150.67V192.92h32.45Z"/><path d="M349,262.21a62.35,62.35,0,0,0-1.3-13.06C343,229.86,326.34,214,303.15,214c-31.89,0-51,27.76-51,64.7,0,34.13,17.12,62.48,50.33,62.48,20.61,0,39.33-13.81,45-36.7A49.83,49.83,0,0,0,349,291.34Zm30.61-147.07v203.4c0,14.95.58,31.76,1.41,43.36H353.68l-1.57-29.07h-.82c-9.42,18.78-29.79,32.89-57.44,32.89-41,0-72.68-34.43-72.68-85.39C220.9,224.14,256,190,297.26,190c26,0,43.5,12.09,51.08,25.5h.7V115.14Z"/><path d="M303.15,214.87c-29.94,0-50,25.64-50,63.79,0,37.41,19.4,61.58,49.42,61.58,21.05,0,38.79-14.47,44.13-36a48.58,48.58,0,0,0,1.49-12.89V262.21a61.69,61.69,0,0,0-1.27-12.86c-4.26-17.15-19.43-34.48-43.72-34.48m-.63,127.18c-31.12,0-51.23-24.88-51.23-63.39,0-39.23,20.84-65.59,51.86-65.59,25.26,0,41,18,45.48,35.86A63.73,63.73,0,0,1,350,262.21v29.13a49.79,49.79,0,0,1-1.55,13.34c-5.54,22.35-24,37.37-45.88,37.37M297.26,190.9a70.29,70.29,0,0,0-50.17,20.87c-16.26,16.33-25.14,40.68-25,68.55,0,49,30.19,84.49,71.78,84.49,25.29,0,46.45-12.1,56.63-32.38l.26-.5H353L354.53,361h25.55c-.81-11.93-1.33-28.45-1.33-42.45V116.05H350V216.4h-2.14l-.26-.46c-10.44-18.46-32.83-25-50.29-25m-3.41,175.73c-42.64,0-73.59-36.3-73.59-86.3-.13-28.36,8.94-53.16,25.55-69.84a72.09,72.09,0,0,1,51.45-21.4c17.44,0,39.68,6.42,50.88,24.29V114.23h32.42V318.54c0,14.35.55,31.34,1.4,43.29l.07,1H352.82l-1.51-28c-10.77,20-32.11,31.87-57.46,31.87"/><path d="M538.35,261.39c.31-19.26-7.93-49.48-42.47-49.48-31.44,0-44.83,28.21-47.28,49.48Zm-90.13,22c.61,41.32,27,58.35,57.94,58.35,22,0,35.54-3.92,46.91-8.61l5.39,21.71c-10.76,4.89-29.59,10.72-56.5,10.72-52,0-83.31-34.41-83.31-84.83,0-50.94,30.23-90.72,79.67-90.72,55.26,0,69.69,48.11,69.69,79.05a73.59,73.59,0,0,1-1,14.33Z"/><path d="M449.62,260.48h87.83c0-6.59-1.17-24.82-13-36.83-7.09-7.19-16.7-10.84-28.58-10.84-18.63,0-41.8,12.51-46.26,47.67m89.63,1.82H447.58l.12-1c1.42-12.37,6.15-24.46,12.95-33.18A43.26,43.26,0,0,1,495.88,211c12.39,0,22.44,3.83,29.87,11.38,12.89,13.11,13.59,33.18,13.51,39Zm-40.93-71.4c-46.37,0-78.77,36.94-78.77,89.82,0,51,32.35,83.92,82.41,83.92,27.74,0,46.41-6.32,55.44-10.32l-4.95-20c-10.31,4.16-23.94,8.28-46.27,8.28-36.32,0-58.32-22.15-58.86-59.25l0-.92H566.21a77.19,77.19,0,0,0,.9-13.42c0-36.05-18-78.15-68.79-78.15M502,366.45c-51.15,0-84.22-33.65-84.22-85.73,0-54,33.14-91.63,80.58-91.63,52.11,0,70.6,43.08,70.6,80a75.52,75.52,0,0,1-1.06,14.51l-.16.72H449.14c.88,35.43,22.14,56.55,57,56.55,22.72,0,36.28-4.32,46.55-8.54l1-.4,5.83,23.46-.69.31C548,360.58,529.31,366.45,502,366.45"/><path d="M606.35,246.17c0-19.85-.5-36.76-1.4-52.35h27l1.17,33h1.1c7.9-22.55,26.57-36.79,47.15-36.79a34.89,34.89,0,0,1,8.56.86v28.75a49.71,49.71,0,0,0-10.48-.89c-21.7,0-37,16.24-41.22,39.11A80,80,0,0,0,637,272.1v89.8H606.35Z"/><path d="M808.25,276.07c-33.31-.7-71.48,5.24-71.48,37.74,0,20.06,13.31,29.27,28.75,29.27,22.3,0,36.37-13.94,41.28-28.15a31.68,31.68,0,0,0,1.45-9.62Zm4.8,85.83-2.72-21.23h-.92c-9.3,13.12-27.55,25.05-51.81,25.05-34.21,0-51.71-24.1-51.71-48.23,0-40.71,36.34-63.07,101.76-62.61v-3.57c0-13.66-3.87-39-38.55-38.78-15.77,0-32.24,4.67-44.13,12.53l-7-20.33c14-9,34.52-14.73,55.89-14.73,51.76,0,64.39,35.12,64.39,68.79v62.88c0,14.36.66,28.68,2.55,40.23Z"/><path d="M803.26,276.92c-27.54,0-46.65,5.07-56.87,15.08-5.78,5.66-8.7,13-8.7,21.81,0,20.92,14.38,28.36,27.83,28.36,22.82,0,36-14.83,40.42-27.53a30.76,30.76,0,0,0,1.42-9.33V277c-1.39,0-2.76,0-4.1,0M765.52,344c-18,0-29.64-11.85-29.64-30.18,0-9.32,3.1-17.09,9.24-23.1,11.19-11,32.4-16.18,63.15-15.54h.9v30.13a32.06,32.06,0,0,1-1.52,9.91C803.06,328.5,789.29,344,765.52,344m40.2-88.22c-39,0-68,8.4-84,24.34-9.88,9.81-14.89,22.39-14.89,37.38,0,22.79,15.9,47.32,50.81,47.32,24.77,0,42.62-12.74,51.08-24.67l.26-.38h2.19L813.85,361h25.91c-1.6-10.22-2.4-23.44-2.4-39.32V258.79c0-31-11-67.89-63.48-67.89-20.13,0-40.55,5.31-54.8,14.22l6.38,18.55c11.92-7.55,28.13-12,43.64-12,12.63-.07,22.52,3.26,29.2,9.9s10.25,16.79,10.25,29.78v4.48h-2.83M757.6,366.63c-16.12,0-29.72-5.31-39.34-15.35A48.5,48.5,0,0,1,705,317.49c0-15.49,5.19-28.5,15.42-38.66,16.54-16.42,46.38-25,86.34-24.86v-2.66c0-12.49-3.27-22.07-9.73-28.5-6.25-6.22-15.53-9.37-27.56-9.37h-.35c-15.61,0-31.9,4.62-43.62,12.38l-1,.64-7.59-22.1.59-.39c14.56-9.32,35.63-14.88,56.38-14.88,54,0,65.29,37.91,65.29,69.7v62.88c0,16.33.85,29.82,2.55,40.08l.16,1.05H812.25L809.58,342c-11.36,15.46-30.71,24.66-52,24.66"/><path d="M607.25,361h28.83V272.1a82.77,82.77,0,0,1,1.25-14.44c4.44-24.2,21-39.84,42.12-39.84a53.23,53.23,0,0,1,9.58.69V191.58a35.29,35.29,0,0,0-7.67-.68c-20.42,0-38.59,14.21-46.3,36.19l-.21.61h-2.61l-1.17-33H605.91c.9,16,1.34,32.85,1.34,51.44Zm30.64,1.81H605.44V246.17c0-18.92-.46-36-1.41-52.3l0-1h28.83l1.14,32c8.28-21.79,26.73-35.77,47.41-35.77a36,36,0,0,1,8.78.89l.7.16v30.58l-1.09-.22a48.4,48.4,0,0,0-10.3-.87c-20.23,0-36.06,15.06-40.34,38.36a80.94,80.94,0,0,0-1.22,14.11Z"/><path class="cls-1" d="M138.65,56H193v54.32H138.65ZM165.82,0,82.66,83.16l83.16,83.16L249,83.16Z"/></g></g></svg>