<?xml version="1.0" encoding="utf-8"?>
<!-- Generator: Adobe Illustrator 26.1.0, SVG Export Plug-In . SVG Version: 6.00 Build 0)  -->
<svg version="1.1" id="Livello_1" xmlns="http://www.w3.org/2000/svg" xmlns:xlink="http://www.w3.org/1999/xlink" x="0px" y="0px"
	 viewBox="0 0 893 522.1" style="enable-background:new 0 0 893 522.1;" xml:space="preserve">
<style type="text/css">
	.st0{fill:#4BA7D0;}
	.st1{fill:none;stroke:#606060;stroke-width:10;stroke-linecap:round;stroke-linejoin:round;}
	.st2{fill:#0E7597;stroke:#4BA7D0;stroke-width:13;stroke-linecap:round;stroke-linejoin:round;}
	.st3{clip-path:url(#SVGID_00000132795648125256579340000002817418782479003552_);}
	.st4{fill:#0E7597;}
	.st5{fill:none;stroke:#4BA7D0;stroke-width:13;stroke-linecap:round;stroke-linejoin:round;}
	.st6{clip-path:url(#SVGID_00000004506680285384208610000010463402631618409348_);}
	.st7{fill:#FFFFFF;stroke:#4BA7D0;stroke-width:13;stroke-linecap:round;stroke-linejoin:round;}
	.st8{fill:#B9EEFC;}
	.st9{fill:none;stroke:#4BA7D0;stroke-width:20;stroke-linecap:round;stroke-linejoin:round;}
	.st10{fill:#FFFFFF;}
	.st11{fill:none;stroke:#4BA7D0;stroke-width:13;stroke-miterlimit:10;}
	.st12{fill:none;stroke:#4BA7D0;stroke-width:6;stroke-linecap:round;stroke-linejoin:round;}
	.st13{opacity:0.24;fill:#0E7597;enable-background:new    ;}
</style>
<g id="Livello_2_00000170248631601495129020000016050906706094749871_">
	<g id="charatcter">
		<path class="st0" d="M65.3,43.8h-6.7V8.4H46.5V2.6h31v5.8H65.3V43.8z"/>
		<path class="st0" d="M110.4,43.8h-6.7V24.7c0.1-1.9-0.4-3.8-1.4-5.4c-1.2-1.3-2.9-1.9-4.6-1.8c-2.8,0-4.8,0.8-6.1,2.5
			c-1.3,1.7-2,4.4-2,8.4v15.5H83V0h6.6v11.1c0,1.9-0.1,3.8-0.3,5.7h0.4c0.9-1.5,2.2-2.7,3.8-3.5c1.7-0.9,3.7-1.3,5.6-1.2
			c7.6,0,11.3,3.8,11.3,11.4L110.4,43.8z"/>
		<path class="st0" d="M133.2,44.4c-4.8,0-8.6-1.4-11.4-4.2s-4.1-6.7-4.1-11.7c0-5.1,1.3-9.1,3.8-12c2.5-2.9,6-4.4,10.4-4.4
			c4.1,0,7.4,1.2,9.7,3.8c2.4,2.5,3.6,5.9,3.6,10.3v3.6h-20.7c0.1,3,0.9,5.3,2.5,7c1.7,1.7,4.1,2.6,6.5,2.4c1.7,0,3.5-0.2,5.1-0.5
			c1.8-0.4,3.5-1,5.1-1.7v5.4c-1.6,0.8-3.2,1.3-4.9,1.6C137,44.3,135.1,44.4,133.2,44.4z M132,17.1c-1.9-0.1-3.7,0.6-5.1,2
			c-1.4,1.7-2.2,3.7-2.2,5.9h14.1c0.1-2.1-0.5-4.2-1.8-5.9C135.7,17.7,133.9,17,132,17.1z"/>
		<path class="st0" d="M168.7,12.1c1.1,0,2.2,0.1,3.3,0.3l-0.6,6.2c-1-0.2-1.9-0.3-2.9-0.3c-2.4-0.1-4.8,0.8-6.4,2.6
			c-1.7,1.8-2.6,4.2-2.5,6.7v16.3h-6.6V12.7h5.1l0.9,5.5h0.3c1-1.8,2.3-3.3,4-4.4C164.8,12.7,166.7,12.1,168.7,12.1z"/>
		<path class="st0" d="M191.3,44.4c-4.9,0-8.6-1.4-11.4-4.2s-4.1-6.7-4.1-11.7s1.3-9.1,3.8-12s6-4.4,10.4-4.4c4.1,0,7.4,1.2,9.7,3.8
			s3.6,5.9,3.6,10.3v3.6h-20.8c0.1,3,0.9,5.3,2.4,7c1.7,1.7,4.1,2.6,6.5,2.4c1.7,0,3.5-0.2,5.1-0.5c1.8-0.4,3.5-1,5.1-1.7v5.4
			c-1.6,0.8-3.2,1.3-4.9,1.6C195.1,44.3,193.2,44.4,191.3,44.4z M190.1,17.1c-1.9-0.1-3.7,0.6-5.1,2c-1.4,1.6-2.2,3.7-2.3,5.9h14.1
			c0-2.6-0.6-4.5-1.9-5.8C193.8,17.8,192,17,190.1,17.1z"/>
		<path class="st0" d="M245.4,43.8l-1.3-4.3h-0.2c-1.2,1.6-2.7,3-4.5,3.9c-1.9,0.7-3.9,1.1-5.9,1c-2.6,0.2-5.2-0.7-7.2-2.5
			c-1.8-1.9-2.7-4.4-2.6-7c-0.2-2.9,1.2-5.6,3.6-7.3c2.4-1.6,6-2.5,10.9-2.7l5.4-0.2v-1.7c0.1-1.6-0.4-3.2-1.4-4.5
			c-1.2-1.1-2.7-1.6-4.3-1.5c-1.6,0-3.1,0.2-4.6,0.7c-1.4,0.5-2.8,1-4.2,1.7l-2.1-4.7c1.8-0.9,3.6-1.6,5.5-2
			c1.9-0.4,3.8-0.7,5.7-0.7c4,0,7,0.9,9,2.6c2,1.7,3,4.4,3,8.1v21L245.4,43.8z M235.6,39.3c2.1,0.1,4.2-0.6,5.8-2
			c1.5-1.5,2.3-3.5,2.2-5.6V29l-4,0.2c-3.1,0.1-5.4,0.6-6.8,1.6c-1.4,0.9-2.2,2.6-2.1,4.3c-0.1,1.2,0.4,2.4,1.2,3.2
			C232.9,39,234.2,39.4,235.6,39.3L235.6,39.3z"/>
		<path class="st0" d="M275.2,12.1c1.1,0,2.2,0.1,3.3,0.3l-0.6,6.2c-1-0.2-1.9-0.3-2.9-0.3c-2.4-0.1-4.8,0.9-6.4,2.6
			c-1.7,1.8-2.6,4.2-2.5,6.7v16.3h-6.6V12.7h5.2l0.9,5.5h0.3c1-1.8,2.3-3.3,4-4.4C271.4,12.7,273.3,12.1,275.2,12.1z"/>
		<path class="st0" d="M297.9,44.4c-4.9,0-8.6-1.4-11.4-4.2s-4.1-6.7-4.1-11.7c0-5.1,1.3-9.1,3.8-12c2.5-2.9,6-4.4,10.4-4.4
			c4.1,0,7.4,1.2,9.8,3.8s3.6,5.9,3.6,10.3v3.6h-20.8c0.1,3,0.9,5.3,2.5,7c1.7,1.7,4.1,2.6,6.5,2.4c1.7,0,3.4-0.2,5.1-0.5
			c1.8-0.4,3.5-1,5.1-1.7v5.4c-1.6,0.8-3.2,1.3-4.9,1.6C301.7,44.3,299.8,44.4,297.9,44.4z M296.6,17.1c-1.9-0.1-3.7,0.7-5,2
			c-1.4,1.6-2.2,3.7-2.3,5.9h14.1c0.1-2.1-0.5-4.2-1.9-5.8C300.3,17.8,298.5,17,296.6,17.1z"/>
		<path class="st0" d="M359.9,43.8h-6.6V24.7c0.1-1.9-0.4-3.8-1.5-5.4c-1.2-1.3-2.9-1.9-4.6-1.8c-2.8,0-4.9,0.8-6.1,2.5
			s-2,4.4-2,8.3v15.5h-6.6V12.7h5.2l0.9,4.1h0.3c1-1.5,2.4-2.7,4-3.4c1.8-0.8,3.8-1.2,5.8-1.2c7.5,0,11.2,3.8,11.2,11.4L359.9,43.8z
			"/>
		<path class="st0" d="M396.7,28.2c0,5.1-1.3,9.1-3.9,11.9c-2.6,2.8-6.2,4.3-10.9,4.3c-2.7,0-5.4-0.6-7.7-2
			c-2.3-1.3-4.1-3.3-5.2-5.6c-1.2-2.7-1.9-5.6-1.8-8.6c0-5,1.3-9,3.9-11.8c2.6-2.8,6.3-4.3,11-4.2c4.5,0,8.1,1.4,10.7,4.4
			S396.7,23.3,396.7,28.2z M374,28.2c0,7.2,2.6,10.8,8,10.8s8-3.6,7.9-10.8c0-7.1-2.6-10.7-7.9-10.7c-2.8,0-4.8,0.9-6,2.8
			S374,24.8,374,28.2L374,28.2z"/>
		<path class="st0" d="M438.8,43.8l-1.3-4.3h-0.2c-1.2,1.6-2.7,3-4.5,3.9c-1.9,0.7-3.9,1.1-5.9,1c-2.6,0.2-5.2-0.7-7.2-2.5
			c-1.8-1.9-2.7-4.4-2.6-7c-0.2-2.9,1.2-5.6,3.6-7.3c2.4-1.6,6-2.5,10.9-2.7l5.4-0.2v-1.7c0.1-1.6-0.4-3.2-1.4-4.5
			c-1.2-1.1-2.7-1.6-4.3-1.5c-1.6,0-3.1,0.2-4.6,0.7c-1.4,0.5-2.9,1-4.2,1.7l-2.1-4.7c1.8-0.9,3.6-1.6,5.5-2
			c1.9-0.4,3.8-0.7,5.7-0.7c4,0,7,0.9,9,2.6c2,1.7,3,4.4,3,8.1v21L438.8,43.8z M428.9,39.3c2.1,0.1,4.2-0.6,5.8-2
			c1.5-1.5,2.3-3.5,2.2-5.6V29l-4,0.2c-3.1,0.1-5.4,0.6-6.8,1.6c-1.4,0.9-2.2,2.6-2.1,4.3c-0.1,1.2,0.4,2.4,1.2,3.2
			C426.3,39,427.6,39.4,428.9,39.3L428.9,39.3z"/>
		<path class="st0" d="M473.7,35c0.1,2.7-1.1,5.4-3.3,7c-2.2,1.6-5.4,2.4-9.5,2.4c-3.4,0.1-6.9-0.5-10-1.9v-5.8
			c3.2,1.6,6.7,2.4,10.2,2.5c4.1,0,6.1-1.2,6.1-3.7c0-0.7-0.2-1.4-0.7-2c-0.6-0.7-1.4-1.2-2.2-1.6c-1.4-0.7-2.8-1.3-4.3-1.9
			c-3.6-1.4-6-2.8-7.3-4.2c-1.3-1.5-2-3.4-1.9-5.4c-0.1-2.5,1.1-4.8,3.2-6.2c2.2-1.5,5.1-2.2,8.8-2.2c3.6,0,7.1,0.7,10.4,2.2l-2.1,5
			c-2.7-1.2-5.5-1.9-8.5-2.1c-3.5,0-5.2,1-5.2,3c0,1,0.5,1.9,1.4,2.5c1.9,1.1,3.9,2.1,6,2.8c2,0.7,3.8,1.6,5.6,2.7
			c1.1,0.7,2,1.7,2.6,2.9C473.4,32.3,473.7,33.7,473.7,35z"/>
		<path class="st0" d="M501.8,35c0.1,2.7-1.1,5.4-3.3,7c-2.2,1.6-5.4,2.4-9.5,2.4c-3.4,0.1-6.9-0.5-10-1.9v-5.8
			c3.2,1.6,6.7,2.4,10.2,2.5c4.1,0,6.1-1.2,6.1-3.7c0-0.7-0.2-1.4-0.7-2c-0.6-0.7-1.4-1.2-2.2-1.6c-1.4-0.7-2.9-1.4-4.4-1.9
			c-3.6-1.4-6-2.8-7.3-4.2c-1.3-1.5-2-3.4-1.9-5.4c-0.1-2.5,1.1-4.9,3.2-6.2c2.2-1.5,5.1-2.2,8.8-2.2c3.6,0,7.1,0.7,10.4,2.2l-2.1,5
			c-2.7-1.2-5.5-1.9-8.5-2.1c-3.5,0-5.2,1-5.2,3c0,1,0.5,1.9,1.4,2.5c1.9,1.1,3.9,2.1,6,2.8c2,0.7,3.8,1.6,5.6,2.7
			c1.1,0.7,2,1.7,2.6,2.9C501.5,32.3,501.8,33.7,501.8,35z"/>
		<path class="st0" d="M522.5,44.4c-4.8,0-8.6-1.4-11.4-4.2c-2.7-2.8-4.1-6.7-4.1-11.7c0-5.1,1.3-9.1,3.8-12c2.5-2.9,6-4.4,10.4-4.4
			c4.1,0,7.4,1.2,9.7,3.8c2.4,2.5,3.6,5.9,3.6,10.3v3.6h-20.8c0.1,3,0.9,5.3,2.5,7c1.7,1.7,4.1,2.6,6.5,2.4c1.7,0,3.5-0.2,5.1-0.5
			c1.8-0.4,3.5-1,5.1-1.7v5.4c-1.6,0.8-3.2,1.3-4.9,1.6C526.3,44.3,524.4,44.4,522.5,44.4z M521.3,17.1c-1.9-0.1-3.7,0.7-5,2
			c-1.4,1.6-2.2,3.7-2.3,5.9h14.1c0.1-2.1-0.5-4.2-1.9-5.8C525,17.8,523.2,17,521.3,17.1z"/>
		<path class="st0" d="M553.7,39c1.6,0,3.3-0.3,4.8-0.8v5c-0.9,0.4-1.9,0.6-2.8,0.8c-1.2,0.2-2.4,0.3-3.6,0.3
			c-6.3,0-9.4-3.3-9.4-9.9V17.7h-4.2v-2.9l4.6-2.4l2.2-6.6h4.1v6.9h8.9v5h-8.9v16.7c-0.1,1.3,0.3,2.6,1.2,3.5
			C551.5,38.7,552.6,39.1,553.7,39z"/>
		<path class="st0" d="M585.7,35c0.1,2.7-1.1,5.4-3.3,7c-2.2,1.6-5.4,2.4-9.5,2.4c-3.4,0.1-6.9-0.5-10-1.9v-5.8
			c3.2,1.6,6.7,2.4,10.2,2.5c4.1,0,6.1-1.2,6.1-3.7c0-0.7-0.2-1.4-0.7-2c-0.6-0.7-1.4-1.2-2.2-1.6c-1.4-0.7-2.8-1.3-4.3-1.9
			c-3.6-1.4-6-2.8-7.3-4.2c-1.3-1.5-2-3.4-1.9-5.4c-0.1-2.5,1.1-4.8,3.2-6.2c2.2-1.5,5.1-2.2,8.8-2.2c3.6,0,7.1,0.7,10.4,2.2l-2.1,5
			c-2.7-1.2-5.5-1.9-8.5-2.1c-3.5,0-5.2,1-5.2,3c0,1,0.5,1.9,1.4,2.5c1.9,1.1,3.9,2.1,6,2.8c2,0.7,3.8,1.6,5.6,2.7
			c1.1,0.7,2,1.7,2.6,2.9C585.5,32.3,585.8,33.7,585.7,35z"/>
		<line class="st1" x1="5" y1="483.6" x2="888" y2="483.6"/>
		<g>
			<path class="st2" d="M659.9,285.6h155v8.4c0,9.4-7.7,17.1-17.1,17.1l0,0H676.9c-9.4,0-17.1-7.6-17.1-17.1c0,0,0,0,0,0V285.6z"/>
			<path class="st0" d="M695,311.1l-17.8,191.3c-0.5,4.9,3.1,9.2,8,9.6c0.3,0,0.5,0,0.8,0l0,0c4.4,0,8.1-3.1,8.8-7.4l32-193.6H695z"
				/>
			<g>
				<defs>
					<path id="SVGID_1_" d="M695,311.1l-17.8,191.3c-0.5,4.9,3.1,9.2,8,9.6c0.3,0,0.5,0,0.8,0l0,0c4.4,0,8.1-3.1,8.8-7.4l32-193.6
						H695z"/>
				</defs>
				<clipPath id="SVGID_00000165193314975713668020000007911434970354159283_">
					<use xlink:href="#SVGID_1_"  style="overflow:visible;"/>
				</clipPath>
				<g style="clip-path:url(#SVGID_00000165193314975713668020000007911434970354159283_);">
					<path class="st0" d="M687.9,387.7c14.8-5.8,29.8-11.3,44.8-16.5c1.5-0.5,1.4-3.1-0.4-3c-12.5,0.9-24.9,2.9-37,6l0.8,2.9l13.5-5
						c1.8-0.7,1-3.6-0.8-2.9l-13.5,5c-0.8,0.2-1.3,1-1.1,1.8c0.2,0.8,1,1.3,1.8,1.1c11.9-3.1,24-5,36.3-5.9l-0.4-2.9
						c-15,5.3-30,10.8-44.8,16.5C685.3,385.5,686.1,388.4,687.9,387.7L687.9,387.7z"/>
					<path class="st0" d="M709.9,300.4c-4.6,3.5-8.8,7.4-12.8,11.6c-1.9,2-3.8,4.2-5.5,6.4c-1.6,2-3.3,4.5-2.3,7.1
						c0.2,0.8,1,1.3,1.8,1c9.6-2.7,17.6-10.3,27.8-11.1l-1-2.5l-17.3,19c-1.3,1.4,0.8,3.5,2.1,2.1l17.3-19c0.8-0.9,0.3-2.7-1.1-2.6
						c-10.6,0.9-18.6,8.4-28.5,11.2l1.8,1c-0.8-2.2,1.8-4.6,3.1-6.1c1.7-2,3.4-3.9,5.2-5.8c3.6-3.7,7.5-7.2,11.5-10.4
						C713.5,301.3,711.4,299.2,709.9,300.4L709.9,300.4z"/>
					<path class="st4" d="M716.2,367.5c-10.9,1.4-21.5,4.9-30.9,10.5c-0.7,0.4-0.9,1.4-0.5,2.1c0.4,0.7,1.3,0.9,2,0.5
						c6.9-3.9,13.5-8.2,19.7-13.1c1.5-1.2-0.6-3.3-2.1-2.1c-6,4.7-12.4,8.9-19.1,12.6l1.5,2.6c9-5.3,19-8.7,29.4-10.1
						C718,370.3,718.1,367.3,716.2,367.5L716.2,367.5z"/>
					<path class="st4" d="M702.7,364.6c-1.1,0.8-2.4,1.4-3.8,1.6l0.8,2.8l15.9-11.4c0.7-0.5,0.9-1.4,0.4-2.1c-0.3-0.5-1-0.8-1.6-0.7
						c-11.7,2.6-22.7,7-33.7,11.5l1.2,2.7l46.3-22c3.4-1.6,7.5-3,9.4-6.5c0.4-0.7,0.1-1.7-0.6-2.1c-0.3-0.2-0.7-0.2-1.1-0.1
						c-19.5,2.8-38.4,8.6-56.1,17.2c-1.6,0.8-0.5,3.2,1.1,2.7c14.1-3.9,27.5-9.8,39.9-17.5c0.7-0.5,0.9-1.4,0.5-2.1
						c-0.3-0.5-1-0.8-1.6-0.7c-6.9,1.4-13.5,3.8-19.7,7.2c-0.7,0.4-0.9,1.4-0.5,2.1c0.3,0.4,0.7,0.7,1.3,0.7
						c6.9-0.3,13.7-1.4,20.3-3.1l-1.5-2.5c-5.6,4.4-12.2,7.1-18.8,9.7c-1.4,0.6-1.4,3.1,0.4,2.9c14.3-1.6,28.4-4.4,42.3-8.3
						c0.8-0.3,1.2-1.1,1-1.9c-0.2-0.7-1-1.2-1.7-1c-5.9,1.5-11.9,2.4-17.9,2.7c-1.9,0.1-1.9,3.1,0,3c6.3-0.3,12.6-1.3,18.7-2.8
						l-0.8-2.9c-13.6,3.8-27.5,6.5-41.5,8.1l0.4,3c7.1-2.8,14.1-5.7,20.1-10.5c1.2-1-0.1-2.9-1.5-2.5c-6.4,1.7-12.9,2.7-19.5,3
						l0.8,2.8c5.9-3.2,12.3-5.5,18.9-6.8l-1.2-2.7c-12.1,7.6-25.3,13.4-39.1,17.2l1.2,2.7c17.5-8.5,36.1-14.2,55.4-17l-1.7-2.3
						c-1.6,2.9-5.3,4-8.1,5.4l-11.2,5.3L693,360.4l-12.8,6.1c-1.5,0.7-0.4,3.4,1.2,2.8c11-4.5,22.1-9,33.7-11.5l-1.2-2.7l-15.9,11.4
						c-1.1,0.8-0.9,3,0.8,2.8c1.9-0.2,3.8-0.9,5.4-2C705.8,366.1,704.2,363.5,702.7,364.6L702.7,364.6z"/>
					<path class="st4" d="M672.9,354.6l-1.5,1.5c-2.9,2.6-5,6-6.2,9.6c-1.9,3.6-2.8,7.5-2.6,11.6l1.1,8c0.9,3.8,2.7,7.3,5.4,10.2
						c1.3,2.2,3.2,4.1,5.4,5.4c2.9,2.6,6.4,4.5,10.2,5.4l8,1.1c5.3,0,10.6-1.4,15.2-4.1c10.4-5,19.7-11.7,28.6-19.1l4.7-6.1l3-7.2
						l1.1-8c0.2-4-0.7-8-2.6-11.6c-0.7-2.5-2-4.8-3.9-6.6c-1.3-2.2-3.2-4.1-5.4-5.4c-1.8-1.8-4.1-3.2-6.6-3.9
						c-3.6-1.9-7.5-2.8-11.6-2.6c-6.1-0.2-12,0.7-18,1.6l23.1,54.8c5-3,9.7-6.3,14.1-10c2.7-2.1,5.2-4.3,7.5-6.8
						c2.9-2.6,5-6,6.2-9.7c1.9-3.6,2.8-7.5,2.6-11.5l-1.1-8c-1.4-5-4-9.6-7.7-13.2c-2.2-2.6-4.9-4.7-8-6.2c-3-1.7-6.2-3-9.6-3.8
						c-2.1-0.5-4.2-0.5-6.2-1.3l7.2,3c-0.5-0.2-0.9-0.4-1.3-0.7l6.1,4.7c-0.4-0.3-0.7-0.6-1-1l4.7,6.1c-0.2-0.3-0.4-0.6-0.5-0.9
						l3,7.2c-0.1-0.3-0.2-0.6-0.3-1l1.1,8c0-0.3,0-0.7,0-1l-1.1,8c0-0.2,0.1-0.4,0.2-0.6l-3,7.2c0.3-0.6,0.7-1.2,1-1.8
						c0.7-1.3,1.3-2.6,1.8-3.9c0.6-1.3,1.1-2.6,1.6-3.9c0.9-2.8,1.3-5.6,1.2-8.5l-1.1-8c-0.4-2.7-1.5-5.2-3.1-7.4
						c-1.3-2.3-3-4.5-4.9-6.4c-4.2-4.2-5.5-4.5-10-6.5c-4.9-2-5.4-2.4-12-2.7c-3.7-0.1-7.3,0-11,0l8,58.9c4.1-1.4,8.1-3,12-4.8
						c0.9-0.4,1.7-0.8,2.5-1.3c0.4-0.3,0.8-0.5,1.2-0.8c2.2-1.6,4.6-3.4,6.7-5.2c0.6-0.5,1.1-1,1.6-1.6c2-2.4,4.5-5.1,5.9-8
						c1.5-2.8,2.8-5.8,3.7-8.9c0.1-0.2,0.1-0.5,0.2-0.7l1.1-8c0.1-0.5,0.1-1,0.1-1.5c0.2-4-0.8-8-2.6-11.5c-1.2-3.7-3.3-7-6.2-9.7
						l-6.1-4.7c-4.6-2.7-9.8-4.1-15.1-4.1l-21.3-1.6v60l6.4-0.5c4,0.2,8-0.7,11.5-2.6c3.7-1.2,7-3.3,9.7-6.2c2.9-2.6,5-6,6.2-9.7
						c1.9-3.6,2.8-7.5,2.6-11.6l-1.1-8c-1.4-5-4-9.6-7.7-13.2l-6.1-4.7c-4.6-2.7-9.8-4.1-15.1-4.1l-6.4,0.5c-4-0.2-8,0.7-11.6,2.6
						c-3.7,1.2-7,3.3-9.7,6.2c-2.9,2.6-5,6-6.2,9.6c-1.9,3.6-2.8,7.5-2.6,11.6l1.1,8c1.4,5,4,9.6,7.7,13.2l6.1,4.7
						c4.6,2.7,9.8,4.1,15.1,4.1l21.3,1.6l-30-30c0,0.5,0,1-0.1,1.5l1.1-8c-0.1,0.6-0.3,1.2-0.5,1.8l3-7.2c-0.3,0.8-0.8,1.6-1.3,2.3
						l4.7-6.1c-0.7,0.9-1.5,1.7-2.4,2.4l6.1-4.7c-1.3,0.9-2.7,1.7-4.1,2.3l7.2-3c-1.5,0.6-3,1.1-4.5,1.6c-3.8,0.9-7.3,2.7-10.2,5.4
						c-3.2,2.1-5.9,5-7.7,8.4l-3,7.2c-1.3,3.9-1.4,8-0.5,12c0,2.7,0.7,5.3,2,7.6c1.2,3.7,3.3,7,6.2,9.7l6.1,4.7
						c4.6,2.7,9.8,4.1,15.1,4.1h5.7c1.8,0,3.6-0.1,5.4,0l-8-1.1l0.3,0.1l-7.2-3l0.3,0.2l-6.1-4.7l0.2,0.2l-4.7-6.1l0.1,0.2l-3-7.2
						v0.3l-1.1-8v0.3l1.1-8c0,0.2-0.1,0.4-0.2,0.6l3-7.2c-0.4,0.7-0.8,1.4-1.2,2.1c-2.6,5.2-4.7,10.7-4.2,16.7l1.1,8
						c0,0.2,0.1,0.4,0.2,0.6c0.8,2.7,1.9,5.3,3.3,7.8c1.6,2.8,3.6,5.4,6,7.6c4.8,4.4,10.7,8.1,17.2,9.2c1.8,0.2,3.5,0.5,5.2,1.1
						l-7.2-3c0.5,0.2,1.1,0.5,1.5,0.9l-6.1-4.7c0.4,0.3,0.7,0.6,1,1v-42.5c-2.3,2.4-4.8,4.7-7.5,6.8l6.1-4.7c-2.5,2-5.2,3.7-8,5.3
						c-3.4,1.8-6.3,4.5-8.4,7.7c-2.6,2.9-4.5,6.4-5.4,10.2l-1.1,8c-0.2,4,0.8,8,2.6,11.5c0.7,2.5,2,4.8,3.9,6.6
						c2.1,3.3,5,5.9,8.4,7.7l7.2,3c5.2,1.4,10.7,1.4,16,0l0.9-0.1l-8,1.1c3-0.4,6-0.5,9.1-0.4l-21.2-51.2c-1,0.9-2.1,1.7-3.1,2.5
						l6.1-4.7c-6,4.6-12.5,8.6-19.4,11.9l36.4,47.1l1.5-1.5c2.9-2.6,5-6,6.2-9.6c3.5-7.3,3.5-15.8,0-23.1c-1.2-3.7-3.3-7-6.2-9.6
						l-6.1-4.7c-4.6-2.7-9.8-4.1-15.1-4.1l-8,1.1C681.1,348.3,676.5,351,672.9,354.6z"/>
					<path class="st4" d="M691.1,432.8c2.4-1.2,4.8-2.3,7.3-3.3l-7.2,3c8.5-3.6,17.2-6.5,25.8-9.4l27.5-9.2l15.6-5.2
						c3.8-0.9,7.3-2.7,10.2-5.4c3.3-2.1,5.9-5,7.7-8.4c2.2-3.3,3.4-7.2,3.6-11.2c0.9-4,0.7-8.1-0.5-12l-3-7.2
						c-2.6-4.5-6.3-8.2-10.8-10.8l-7.2-3c-5.2-1.4-10.8-1.4-16,0l-30.8,10.3c-9.9,3.3-20,6.5-29.8,10.2c-7.8,2.9-15.4,6.1-22.8,9.7
						c-3.4,1.8-6.3,4.5-8.4,7.7c-5.2,6.1-7.3,14.3-5.9,22.2c0.2,4,1.4,7.8,3.6,11.2l4.7,6.1c3.7,3.7,8.2,6.3,13.2,7.7l8,1.1
						C681.3,436.9,686.6,435.5,691.1,432.8L691.1,432.8z"/>
					<path class="st0" d="M762.1,421.7c15.4-9.4,31.1-18.3,47.1-26.8c0.7-0.4,0.9-1.3,0.5-2.1c-0.3-0.6-1-0.9-1.7-0.7
						c-18.2,5.5-34.8,14.8-51.2,24.1l1.5,2.6c11.8-7,23.7-13.7,35.8-20.1c1.7-0.9,0.2-3.5-1.5-2.6c-12.1,6.4-24,13.1-35.8,20.1
						c-0.7,0.4-1,1.3-0.5,2.1s1.3,1,2.1,0.5l0,0c16.1-9.3,32.5-18.4,50.5-23.9l-1.2-2.7c-16,8.4-31.7,17.3-47.1,26.8
						C758.9,420.1,760.4,422.7,762.1,421.7L762.1,421.7z"/>
				</g>
			</g>
			<path class="st5" d="M695,311.1l-17.8,191.3c-0.5,4.9,3.1,9.2,8,9.6c0.3,0,0.5,0,0.8,0l0,0c4.4,0,8.1-3.1,8.8-7.4l32-193.6H695z"
				/>
			<path class="st0" d="M780.1,311.1l17.7,191.3c0.5,4.9-3.1,9.2-8,9.6c-0.3,0-0.6,0-0.8,0l0,0c-4.3,0-8-3.1-8.7-7.4l-31.9-193.6
				H780.1z"/>
			<g>
				<defs>
					<path id="SVGID_00000170962203353436448450000018056830920199757231_" d="M780.1,311.1l17.7,191.3c0.5,4.9-3.1,9.2-8,9.6
						c-0.3,0-0.6,0-0.8,0l0,0c-4.3,0-8-3.1-8.7-7.4l-31.9-193.6H780.1z"/>
				</defs>
				<clipPath id="SVGID_00000040575907658025456430000001700971429993728656_">
					<use xlink:href="#SVGID_00000170962203353436448450000018056830920199757231_"  style="overflow:visible;"/>
				</clipPath>
				<g style="clip-path:url(#SVGID_00000040575907658025456430000001700971429993728656_);">
					<path class="st4" d="M799,368.6c-18.2,6.1-35.6,14.3-51.9,24.4c-4.6,2.8-9.1,5.8-13.5,8.9c-1.6,1.1-0.1,3.7,1.5,2.6
						c15.4-10.9,32-20.1,49.5-27.3c5-2,10-3.9,15.1-5.7C801.7,370.9,800.8,368,799,368.6L799,368.6z"/>
					<path class="st4" d="M765.6,355c2.9-1.4,5.8-2.7,8.8-4l-7.2,3c12.9-5.4,26.3-9.3,40.1-11.5l-23.1-54.8
						c-5.6,3.8-11.1,7.8-16.3,12.1c-3.4,2.8-6.7,5.7-9.9,8.9c-3.1,3.1-6,6.3-8.8,9.7c-4.4,5.3-8.5,10.7-12.3,16.4l-3,7.2l-1.1,8
						l1.1,8c0.9,3.8,2.7,7.3,5.4,10.2c1.3,2.2,3.2,4.1,5.4,5.4c1.8,1.8,4.1,3.2,6.6,3.9c2.3,1.3,4.9,2,7.5,2c4,0.9,8.1,0.7,12-0.5
						c7.4-2.3,15-4,22.7-5l-8,1.1c2.5-0.3,5-0.6,7.6-0.8L778,318.1c-13.1,7.2-25.8,15.2-38,23.9l-6.1,4.7c-2.9,2.6-5,5.9-6.2,9.6
						c-1.3,2.3-2,4.9-2,7.6c-0.9,4-0.7,8.1,0.5,12l3,7.2l4.7,6.1c2.6,2.9,5.9,5,9.7,6.2c3.6,1.9,7.5,2.8,11.6,2.6l27-2.4L761,344.4
						c-3.5,3.4-7.2,6.5-11.1,9.5l6.1-4.7c-6.1,4.7-12.6,8.9-19.4,12.5l30.3,51.8l48.9-33.2l13.8-9.4c3.4-1.8,6.3-4.5,8.4-7.7
						c5.2-6.1,7.3-14.3,5.9-22.2c-0.2-4-1.4-7.8-3.6-11.1l-4.7-6.1c-3.7-3.7-8.2-6.3-13.2-7.7l-8-1.1c-5.3,0-10.5,1.4-15.1,4.1
						l-48.9,33.2l-13.8,9.4c-3.4,1.8-6.3,4.5-8.4,7.7c-5.2,6.1-7.3,14.3-5.9,22.2c0.2,4,1.4,7.8,3.6,11.1l4.7,6.1
						c3.7,3.7,8.2,6.3,13.2,7.7l8,1.1c5.3,0,10.6-1.4,15.1-4.1c5.6-3,11-6.3,16.2-10.1c7.2-5.1,14-10.6,20.4-16.6l4.7-6.1l3-7.2
						l1.1-8c0.2-4-0.7-8-2.6-11.5c-0.7-2.5-2-4.8-3.9-6.6c-1.3-2.2-3.2-4.1-5.4-5.4c-1.8-1.8-4.1-3.2-6.6-3.9
						c-3.6-1.9-7.5-2.8-11.6-2.6l-27,2.4l15.1,55.9c12.2-8.7,24.9-16.7,38-23.9l6.1-4.7c2.9-2.6,5-6,6.2-9.7c1.3-2.3,2-4.9,2-7.6
						c0.9-4,0.7-8.1-0.5-12l-3-7.2l-4.7-6.1c-2.6-2.9-5.9-5-9.7-6.2c-3.5-1.9-7.5-2.8-11.5-2.6c-7.7,0.6-15.4,1.7-23,3.1
						c-5.1,1-10.2,2.2-15.2,3.8l33.8,44.1c1.7-2.6,3.5-5.1,5.4-7.5l-4.7,6.1c6.6-8.6,14.3-16.3,22.9-22.9l-6.1,4.7
						c2.7-2.1,5.4-4,8.2-5.9c3.4-1.8,6.3-4.5,8.4-7.7c2.6-2.9,4.5-6.4,5.4-10.2l1.1-8c0.2-4-0.7-8-2.6-11.5c-0.7-2.5-2-4.8-3.9-6.6
						c-2.1-3.2-5-5.9-8.4-7.7l-7.2-3c-5.2-1.4-10.8-1.4-16,0c-19.6,3.2-38.3,9.9-56.1,18.5c-3.4,1.8-6.3,4.5-8.4,7.7
						c-5.2,6.1-7.3,14.3-5.9,22.2c0.2,4,1.4,7.8,3.6,11.1l4.7,6.1c3.7,3.7,8.3,6.3,13.3,7.7l8,1.1C755.8,359.1,761,357.7,765.6,355
						L765.6,355z"/>
					<path class="st4" d="M772.7,419.2c1.7-1.3,3.4-2.7,5.1-4l-6.1,4.7c12.6-9.7,25.8-18.6,39.6-26.5c3.9-2.3,7.9-4.4,11.9-6.5
						c3.4-1.8,6.3-4.5,8.4-7.7c5.2-6.1,7.3-14.3,5.9-22.2c-0.2-4-1.4-7.8-3.6-11.1l-4.7-6.1c-3.7-3.7-8.2-6.3-13.2-7.7l-8-1.1
						c-5.3,0-10.5,1.4-15.1,4.1c-15.6,8.2-30.6,17.5-44.9,28c-6,4.4-11.9,9-17.8,13.7c-2.9,2.6-5,6-6.2,9.6
						c-3.4,7.3-3.4,15.8,0,23.1c1.2,3.7,3.3,7,6.2,9.6l6.1,4.7c4.6,2.7,9.8,4.1,15.2,4.1l8-1.1C764.5,425.5,769.1,422.9,772.7,419.2
						L772.7,419.2z"/>
				</g>
			</g>
			<path class="st5" d="M780.1,311.1l17.7,191.3c0.5,4.9-3.1,9.2-8,9.6c-0.3,0-0.6,0-0.8,0l0,0c-4.3,0-8-3.1-8.7-7.4l-31.9-193.6
				H780.1z"/>
			<path class="st5" d="M716.3,285c-22.6-11.6-31.5-39.4-19.8-62s39.4-31.5,62-19.8c22.6,11.6,31.5,39.4,19.8,62
				c-4.3,8.4-11.1,15.2-19.4,19.6"/>
			<polygon class="st7" points="674.4,208.1 799.4,208.1 772.4,126.1 701.4,126.1 			"/>
			<path class="st8" d="M747.4,269.6c-0.5,0-0.9-0.2-1.2-0.6c-0.4-0.5-0.4-1.1-0.2-1.6c11.5-22-0.8-42.3-0.9-42.5
				c-0.3-0.5-0.3-1.2,0.1-1.7c0.3-0.4,0.7-0.6,1.2-0.6c0.1,0,0.2,0,0.3,0c0.2,0.1,23.2,5.5,22.3,23.5c-0.4,7.4-4.2,13.9-11,18.5
				c-3.1,2.1-6.6,3.8-10.2,4.8C747.6,269.6,747.5,269.6,747.4,269.6z"/>
			<path class="st8" d="M746.4,224.1c0,0,22,5,21.2,22s-20.2,22-20.2,22C759.4,245.1,746.4,224.1,746.4,224.1 M746.4,221.1
				c-1.7,0-3,1.4-2.9,3c0,0.5,0.2,1.1,0.4,1.5c0.5,0.8,11.9,19.9,0.9,41c-0.8,1.5-0.2,3.3,1.3,4c0.4,0.2,0.9,0.3,1.4,0.3
				c0.3,0,0.5,0,0.8-0.1c3.8-1.1,7.4-2.8,10.7-5c7.3-5,11.3-11.8,11.7-19.7c0.7-15.4-15.1-23.1-23.5-25.1
				C746.8,221.2,746.6,221.1,746.4,221.1L746.4,221.1z"/>
		</g>
		<g>
			<path class="st9" d="M423.9,266.1c0,0,132-12,112,87"/>
			<path class="st4" d="M131.3,169.9l53.1-34.3l79-14l177,2l23,161.4h82.5c0,0-54.5,3.6-54.5,40.6v84.1c0,0-1-46.5-56-46.5h-202V336
				c0-27.3-18.1-49.4-45.4-49.4h-7.6c0,0-44,7-44,51s51,39,51,39v140.2H78.2v-130c0,0-51.1,4.5-51.1-52.8
				c0-44.4,51.7-47.9,51.7-47.9v-82.5"/>
			<path class="st10" d="M540.9,517.6V387.3c0,0,53,3.8,53-53.2c0-47-48-49.5-48-49.5s-54.5-4.3-54.5,48.9l2.7,184.1H540.9z"/>
			<path class="st1" d="M77.4,388.2L78,517.1h463V386.8c0,0,53,3.8,53-53.2c0-47-48-49.5-48-49.5H416v-144c0,0,1-55-51-55
				c-69.8,0-139.7-0.7-209.5-0.6c-10.8,0-21.5,0.2-32.3,0.7c-9.8,0.5-16.3,3.1-24.7,8.3c-13.7,8.3-23.3,22-26.5,37.7
				c-3.3,16.4,2.6,32.3,4.6,48.4c1.5,12.6,0.4,26,0.4,38.8v64.6"/>
			<line class="st1" x1="233.9" y1="410.8" x2="490.4" y2="410.8"/>
			<path class="st1" d="M491.3,517.1c0-24.1-0.3-48.1-0.3-72.2c0-11.1-0.1-22.3,0.4-33.4c0.5-10.3-1.1-19.8-7.7-28.1
				c-8.7-11-23-16.3-36.9-18.1c-31.7-4-65.4-1.2-97.3-1.2H233.9"/>
			<path class="st10" d="M436.1,357.6H288.3c-14,0-25.4-11.6-25.4-26v-176c0-14.4,11.4-26,25.4-26h141.8c14,0,25.3,11.7,25.3,26
				l6,175.9C461.4,346,450.1,357.6,436.1,357.6z"/>
			<path class="st11" d="M162.4,179.6v-15.4c0-14.3,10.1-26.6,24.1-29.3l39.9-7.9c14.6-2.9,29.5-4.3,44.4-4.3h158.6
				c18,0,32.5,14.6,32.5,32.6l6,170.1c0,18.1-14.7,32.8-32.8,32.8c0,0,0,0,0,0H188.5c-17.9,0-32.5-14.6-32.5-32.5c0,0,0-0.1,0-0.1
				L162.4,179.6z"/>
			<path class="st0" d="M396.9,215.6L396.9,215.6c2.8,0,5,2.2,5,5v8.5c0,2.8-2.2,5-5,5l0,0c-2.8,0-5-2.2-5-5v-8.5
				C391.9,217.9,394.2,215.6,396.9,215.6z"/>
			<path class="st0" d="M356.9,215.6L356.9,215.6c2.8,0,5,2.2,5,5v8.5c0,2.8-2.2,5-5,5l0,0c-2.8,0-5-2.2-5-5v-8.5
				C351.9,217.9,354.2,215.6,356.9,215.6z"/>
			<path class="st12" d="M357.9,278c0,0,4.5-11.4,18.5-11.4s19,10,19,10"/>
			<path class="st10" d="M169.9,326.5c0,0,0.9-16.9,13.8-17.2s50-0.7,50-0.7s12,0,12.9,18L169.9,326.5z"/>
			<path class="st13" d="M274.9,327.1c0,0-1.2-18.4,11.7-19.4c12.9-1,157.2-2.6,157.2-2.6s12,0,12.9,18L274.9,327.1z"/>
			<path class="st10" d="M187.4,376.6v138.2h46.5V331.9c0-25.3-20.5-45.7-45.7-45.7h-2.5c-47.3-4.5-62.3,15.5-62.3,48.4v4.2
				c1,30,25,37.9,51.4,37.9L187.4,376.6"/>
			<path class="st1" d="M233.9,516.1V337.9c0,0,1-51.8-50-51.8h-107c0,0-50,0.5-50,52c0,54,51.2,48.7,51.2,48.7v130.3L233.9,516.1z"
				/>
			<path class="st9" d="M206.9,266.1c0,0-132-12-112,87"/>
			<path class="st10" d="M398.1,217.6L398.1,217.6c1,0,1.9,0.9,1.9,1.9v1c0,1-0.9,1.9-1.9,1.9h0c-1,0-1.9-0.9-1.9-1.9v-1
				C396.2,218.4,397,217.6,398.1,217.6z"/>
			<path class="st10" d="M357.9,217.6L357.9,217.6c1,0,1.9,0.9,1.9,1.9v1c0,1-0.9,1.9-1.9,1.9h0c-1,0-1.9-0.9-1.9-1.9v-1
				C356,218.4,356.8,217.6,357.9,217.6z"/>
			
				<ellipse transform="matrix(0.8967 -0.4426 0.4426 0.8967 -158.7985 213.211)" class="st0" cx="377.4" cy="446.9" rx="13.7" ry="30.5"/>
			
				<ellipse transform="matrix(0.8967 -0.4426 0.4426 0.8967 -149.6049 252.6059)" class="st0" cx="466.5" cy="446.9" rx="13.7" ry="30.5"/>
			<path class="st9" d="M299.9,354.1c0,0,92-32,73,67"/>
			<path class="st9" d="M388.9,354.1c0,0,92-32,73,67"/>
		</g>
	</g>
</g>
</svg>
