<svg xmlns="http://www.w3.org/2000/svg" viewBox="0 0 829.88 462.5"><defs><style>.cls-1,.cls-3{opacity:0.5;}.cls-2,.cls-3{fill:#ececec;}</style></defs><g id="Livello_2" data-name="Livello 2"><g id="Livello_1-2" data-name="Livello 1"><g class="cls-1"><g class="cls-1"><path class="cls-2" d="M548.56,302.24c-20.28-26.13-18.09-58.82-16.84-68.77,48.94,3,82.78,15.92,100.6,38.32,16.17,20.33,12.64,41.62,12.61,41.84l6.93,1.25c.18-1,4.19-24.43-13.91-47.31A79,79,0,0,0,624.07,254a24.55,24.55,0,1,0-26.52-14.65q-27.76-10.91-68.64-13.11l-3-.17-.6,3c-.36,1.77-8.38,43.77,17.68,77.41,18.45,23.83,49.12,37.09,91.17,39.43l.39-7C594.63,336.67,565.71,324.34,548.56,302.24Zm71.68-90.07a17.6,17.6,0,1,1-17.6,17.6A17.62,17.62,0,0,1,620.24,212.17Z"/><path class="cls-2" d="M699.25,303.31,696.1,297c-21.43,10.71-36.32,31.64-42.87,42.3-9.09-21.23-31.26-57.74-81-77.62l-2.62,6.53c67.74,27.1,82.21,88.4,82.35,89l6.87-1.53a81.7,81.7,0,0,0-2.38-8C659.91,341.54,675.58,315.15,699.25,303.31Z"/><path class="cls-2" d="M736.37,264.58l-.35-3.13h-3.15c-58,0-73,35.88-73.66,37.41l6.53,2.63c.54-1.32,13.53-31.69,63.84-33C730,281.24,728,327.36,675.79,339l1.53,6.87C743,331.25,736.45,265.24,736.37,264.58Z"/><path class="cls-2" d="M683.59,240.33a17.6,17.6,0,1,0-17.6-17.6A17.61,17.61,0,0,0,683.59,240.33Zm0-28.16A10.56,10.56,0,1,1,673,222.73,10.57,10.57,0,0,1,683.59,212.17Z"/><path class="cls-2" d="M641.36,191.05a24.64,24.64,0,1,0-24.64-24.64A24.66,24.66,0,0,0,641.36,191.05Zm0-42.24a17.6,17.6,0,1,1-17.6,17.6A17.62,17.62,0,0,1,641.36,148.81Z"/></g><path class="cls-3" d="M490.92,68.92A16.92,16.92,0,1,0,474,52,16.94,16.94,0,0,0,490.92,68.92Zm0-29A12.08,12.08,0,1,1,478.83,52,12.09,12.09,0,0,1,490.92,39.92Z"/><path class="cls-3" d="M432.92,90.92A31.92,31.92,0,1,0,401,59,32,32,0,0,0,432.92,90.92Zm0-54.72A22.8,22.8,0,1,1,410.12,59,22.82,22.82,0,0,1,432.92,36.2Z"/><path class="cls-3" d="M416.83,0a20.53,20.53,0,0,0,20.5,20.5A20.53,20.53,0,0,0,457.83,0M452,0a14.65,14.65,0,0,1-14.64,14.64A14.65,14.65,0,0,1,422.69,0"/><path class="cls-3" d="M110.92,235.5a16.92,16.92,0,1,0,16.91,16.92A16.94,16.94,0,0,0,110.92,235.5Zm0,29A12.09,12.09,0,1,1,123,252.42,12.1,12.1,0,0,1,110.92,264.5Z"/><path class="cls-3" d="M161.92,194.5a31.92,31.92,0,1,0,31.91,31.92A32,32,0,0,0,161.92,194.5Zm0,54.71a22.8,22.8,0,1,1,22.79-22.79A22.81,22.81,0,0,1,161.92,249.21Z"/><path class="cls-3" d="M16.92,428.67a16.92,16.92,0,1,0,16.91,16.91A16.94,16.94,0,0,0,16.92,428.67Zm0,29A12.09,12.09,0,1,1,29,445.58,12.1,12.1,0,0,1,16.92,457.67Z"/><path class="cls-3" d="M78,462.5a23.89,23.89,0,0,0-44.11-.23m7.77-.11A17.06,17.06,0,0,1,70,462"/><path class="cls-3" d="M491.33,396.5a20.5,20.5,0,1,0-20.5-20.5A20.53,20.53,0,0,0,491.33,396.5Zm0-35.14A14.64,14.64,0,1,1,476.69,376,14.65,14.65,0,0,1,491.33,361.36Z"/><path class="cls-3" d="M248.33,81.5A20.5,20.5,0,1,0,227.83,61,20.53,20.53,0,0,0,248.33,81.5Zm0-35.14A14.64,14.64,0,1,1,233.69,61,14.65,14.65,0,0,1,248.33,46.36Z"/><path class="cls-3" d="M219.36,103.45A10.48,10.48,0,1,0,208.88,93,10.49,10.49,0,0,0,219.36,103.45Zm0-18A7.49,7.49,0,1,1,211.88,93,7.49,7.49,0,0,1,219.36,85.49Z"/><path class="cls-3" d="M796.86,309.5a10,10,0,1,0-10-10A10,10,0,0,0,796.86,309.5Zm0-17.19a7.17,7.17,0,1,1-7.16,7.16A7.17,7.17,0,0,1,796.86,292.31Z"/><path class="cls-3" d="M815.36,288.5A14.53,14.53,0,1,0,800.83,274,14.54,14.54,0,0,0,815.36,288.5Zm0-24.9A10.38,10.38,0,1,1,805,274,10.38,10.38,0,0,1,815.36,263.6Z"/><path class="cls-3" d="M820.83,310.45a5,5,0,1,0-5-5A5,5,0,0,0,820.83,310.45Zm0-8.57a3.57,3.57,0,1,1-3.57,3.57A3.57,3.57,0,0,1,820.83,301.88Z"/><path class="cls-3" d="M456.33,421.5a14.5,14.5,0,1,0-14.5-14.5A14.52,14.52,0,0,0,456.33,421.5Zm0-24.86A10.36,10.36,0,1,1,446,407,10.37,10.37,0,0,1,456.33,396.64Z"/></g></g></g></svg>