<svg xmlns="http://www.w3.org/2000/svg" xmlns:xlink="http://www.w3.org/1999/xlink" viewBox="0 0 718 2211"><defs><style>.cls-1{fill:none;}.cls-2{fill:#f7f7f7;}.cls-2,.cls-3{opacity:0.5;}.cls-4{clip-path:url(#clip-path);}.cls-5{fill:#ececec;}.cls-6{clip-path:url(#clip-path-2);}.cls-7{fill:#003df0;}</style><clipPath id="clip-path"><polygon class="cls-1" points="718 1569 0 1741 0 1676 718 1504 718 1569"/></clipPath><clipPath id="clip-path-2"><polygon class="cls-1" points="718 159 0 331 0 266 718 94 718 159"/></clipPath></defs><g id="Livello_2" data-name="Livello 2"><g id="companies_logo" data-name="companies logo"><polygon class="cls-2" points="718 65 0 237 0 172 718 0 718 65"/><polygon class="cls-2" points="718 253 0 425 0 360 718 188 718 253"/><polygon class="cls-2" points="718 441 0 613 0 548 718 376 718 441"/><polygon class="cls-2" points="718 347 0 519 0 454 718 282 718 347"/><polygon class="cls-2" points="718 535 0 707 0 642 718 470 718 535"/><polygon class="cls-2" points="718 629 0 801 0 736 718 564 718 629"/><polygon class="cls-2" points="718 723 0 895 0 830 718 658 718 723"/><polygon class="cls-2" points="718 817 0 989 0 924 718 752 718 817"/><polygon class="cls-2" points="718 911 0 1083 0 1018 718 846 718 911"/><polygon class="cls-2" points="718 1005 0 1177 0 1112 718 940 718 1005"/><polygon class="cls-2" points="718 1099 0 1271 0 1206 718 1034 718 1099"/><polygon class="cls-2" points="718 1193 0 1365 0 1300 718 1128 718 1193"/><polygon class="cls-2" points="718 1287 0 1459 0 1394 718 1222 718 1287"/><polygon class="cls-2" points="718 1381 0 1553 0 1488 718 1316 718 1381"/><polygon class="cls-2" points="718 1475 0 1647 0 1582 718 1410 718 1475"/><polygon class="cls-2" points="718 1663 0 1835 0 1770 718 1598 718 1663"/><polygon class="cls-2" points="718 1757 0 1929 0 1864 718 1692 718 1757"/><polygon class="cls-2" points="718 1851 0 2023 0 1958 718 1786 718 1851"/><polygon class="cls-2" points="718 1945 0 2117 0 2052 718 1880 718 1945"/><polygon class="cls-2" points="718 2039 0 2211 0 2146 718 1974 718 2039"/><g class="cls-3"><g class="cls-4"><path class="cls-5" d="M56.44,1664.18a17.6,17.6,0,1,0,17.6,17.6A17.61,17.61,0,0,0,56.44,1664.18Zm0,28.16A10.56,10.56,0,1,1,67,1681.78,10.57,10.57,0,0,1,56.44,1692.34Z"/><path class="cls-5" d="M188.44,1650.18a17.6,17.6,0,1,0,17.6,17.6A17.61,17.61,0,0,0,188.44,1650.18Zm0,28.16A10.56,10.56,0,1,1,199,1667.78,10.57,10.57,0,0,1,188.44,1678.34Z"/><path class="cls-5" d="M114.42,1681.2a9.58,9.58,0,1,0,9.58,9.58A9.58,9.58,0,0,0,114.42,1681.2Zm0,15.32a5.75,5.75,0,1,1,5.75-5.74A5.74,5.74,0,0,1,114.42,1696.52Z"/><path class="cls-5" d="M209.42,1631.2a9.58,9.58,0,1,0,9.58,9.58A9.58,9.58,0,0,0,209.42,1631.2Zm0,15.32a5.75,5.75,0,1,1,5.75-5.74A5.74,5.74,0,0,1,209.42,1646.52Z"/><path class="cls-5" d="M379.42,1599.2a9.58,9.58,0,1,0,9.58,9.58A9.58,9.58,0,0,0,379.42,1599.2Zm0,15.32a5.75,5.75,0,1,1,5.75-5.74A5.74,5.74,0,0,1,379.42,1614.52Z"/><path class="cls-5" d="M444.42,1604.2a9.58,9.58,0,1,0,9.58,9.58A9.58,9.58,0,0,0,444.42,1604.2Zm0,15.32a5.75,5.75,0,1,1,5.75-5.74A5.74,5.74,0,0,1,444.42,1619.52Z"/><path class="cls-5" d="M530.42,1598.2a9.58,9.58,0,1,0,9.58,9.58A9.58,9.58,0,0,0,530.42,1598.2Zm0,15.32a5.75,5.75,0,1,1,5.75-5.74A5.74,5.74,0,0,1,530.42,1613.52Z"/><path class="cls-5" d="M540.42,1570.2A12.58,12.58,0,1,0,553,1582.78,12.59,12.59,0,0,0,540.42,1570.2Zm0,20.12a7.55,7.55,0,1,1,7.55-7.54A7.55,7.55,0,0,1,540.42,1590.32Z"/><path class="cls-5" d="M593.42,1528.2A12.58,12.58,0,1,0,606,1540.78,12.59,12.59,0,0,0,593.42,1528.2Zm0,20.12a7.55,7.55,0,1,1,7.55-7.54A7.55,7.55,0,0,1,593.42,1548.32Z"/><path class="cls-5" d="M613.92,1547.2a8.08,8.08,0,1,0,8.08,8.08A8.08,8.08,0,0,0,613.92,1547.2Zm0,12.92a4.85,4.85,0,1,1,4.85-4.84A4.84,4.84,0,0,1,613.92,1560.12Z"/><path class="cls-5" d="M679.92,1554.2a8.08,8.08,0,1,0,8.08,8.08A8.08,8.08,0,0,0,679.92,1554.2Zm0,12.92a4.85,4.85,0,1,1,4.85-4.84A4.84,4.84,0,0,1,679.92,1567.12Z"/><path class="cls-5" d="M706,1541.28a12.08,12.08,0,1,0-12.08,12.07A12.09,12.09,0,0,0,706,1541.28Zm-12.08,7.24a7.25,7.25,0,1,1,7.25-7.24A7.25,7.25,0,0,1,693.92,1548.52Z"/><path class="cls-5" d="M717.75,1552.2a20.9,20.9,0,1,0,20.9,20.9A20.92,20.92,0,0,0,717.75,1552.2Zm0,33.44a12.54,12.54,0,1,1,12.54-12.54A12.55,12.55,0,0,1,717.75,1585.64Z"/><path class="cls-5" d="M560.92,1589.2a6.08,6.08,0,1,0,6.08,6.08A6.08,6.08,0,0,0,560.92,1589.2Zm0,9.72a3.65,3.65,0,1,1,3.65-3.64A3.64,3.64,0,0,1,560.92,1598.92Z"/><path class="cls-5" d="M594.92,1559.2a6.08,6.08,0,1,0,6.08,6.08A6.08,6.08,0,0,0,594.92,1559.2Zm0,9.72a3.65,3.65,0,1,1,3.65-3.64A3.64,3.64,0,0,1,594.92,1568.92Z"/><path class="cls-5" d="M624.92,1529.2a6.08,6.08,0,1,0,6.08,6.08A6.08,6.08,0,0,0,624.92,1529.2Zm0,9.72a3.65,3.65,0,1,1,3.65-3.64A3.64,3.64,0,0,1,624.92,1538.92Z"/><path class="cls-5" d="M449.92,1586.2a6.08,6.08,0,1,0,6.08,6.08A6.08,6.08,0,0,0,449.92,1586.2Zm0,9.72a3.65,3.65,0,1,1,3.65-3.64A3.64,3.64,0,0,1,449.92,1595.92Z"/><path class="cls-5" d="M491.92,1554.2a6.08,6.08,0,1,0,6.08,6.08A6.08,6.08,0,0,0,491.92,1554.2Zm0,9.72a3.65,3.65,0,1,1,3.65-3.64A3.64,3.64,0,0,1,491.92,1563.92Z"/><path class="cls-5" d="M478.42,1582.7A15.58,15.58,0,1,0,494,1598.28,15.58,15.58,0,0,0,478.42,1582.7Zm0,24.92a9.35,9.35,0,1,1,9.35-9.34A9.35,9.35,0,0,1,478.42,1607.62Z"/><path class="cls-5" d="M237.42,1644.2a9.58,9.58,0,1,0,9.58,9.58A9.58,9.58,0,0,0,237.42,1644.2Zm0,15.32a5.75,5.75,0,1,1,5.75-5.74A5.74,5.74,0,0,1,237.42,1659.52Z"/><path class="cls-5" d="M128.92,1661.7a6.08,6.08,0,1,0,6.08,6.08A6.08,6.08,0,0,0,128.92,1661.7Zm0,9.72a3.65,3.65,0,1,1,3.65-3.64A3.64,3.64,0,0,1,128.92,1671.42Z"/><path class="cls-5" d="M233.92,1639.85a6.08,6.08,0,1,0-6.07-6.07A6.08,6.08,0,0,0,233.92,1639.85Zm0-9.72a3.65,3.65,0,1,1-3.64,3.65A3.66,3.66,0,0,1,233.92,1630.13Z"/><path class="cls-5" d="M11.21,1678.82a24.64,24.64,0,1,0,24.64,24.64A24.66,24.66,0,0,0,11.21,1678.82Zm0,42.24a17.6,17.6,0,1,1,17.6-17.6A17.61,17.61,0,0,1,11.21,1721.06Z"/><path class="cls-5" d="M359.21,1618.82a24.64,24.64,0,1,0,24.64,24.64A24.66,24.66,0,0,0,359.21,1618.82Zm0,42.24a17.6,17.6,0,1,1,17.6-17.6A17.61,17.61,0,0,1,359.21,1661.06Z"/></g></g><g class="cls-3"><g class="cls-6"><g class="cls-3"><path class="cls-7" d="M56.44,254.18A17.6,17.6,0,1,0,74,271.78,17.61,17.61,0,0,0,56.44,254.18Zm0,28.16A10.56,10.56,0,1,1,67,271.78,10.57,10.57,0,0,1,56.44,282.34Z"/><path class="cls-7" d="M188.44,240.18a17.6,17.6,0,1,0,17.6,17.6A17.61,17.61,0,0,0,188.44,240.18Zm0,28.16A10.56,10.56,0,1,1,199,257.78,10.57,10.57,0,0,1,188.44,268.34Z"/><path class="cls-7" d="M114.42,271.2a9.58,9.58,0,1,0,9.58,9.58A9.58,9.58,0,0,0,114.42,271.2Zm0,15.32a5.75,5.75,0,1,1,5.75-5.74A5.74,5.74,0,0,1,114.42,286.52Z"/><path class="cls-7" d="M209.42,221.2a9.58,9.58,0,1,0,9.58,9.58A9.58,9.58,0,0,0,209.42,221.2Zm0,15.32a5.75,5.75,0,1,1,5.75-5.74A5.74,5.74,0,0,1,209.42,236.52Z"/><path class="cls-7" d="M379.42,189.2a9.58,9.58,0,1,0,9.58,9.58A9.58,9.58,0,0,0,379.42,189.2Zm0,15.32a5.75,5.75,0,1,1,5.75-5.74A5.74,5.74,0,0,1,379.42,204.52Z"/><path class="cls-7" d="M444.42,194.2a9.58,9.58,0,1,0,9.58,9.58A9.58,9.58,0,0,0,444.42,194.2Zm0,15.32a5.75,5.75,0,1,1,5.75-5.74A5.74,5.74,0,0,1,444.42,209.52Z"/><path class="cls-7" d="M530.42,188.2a9.58,9.58,0,1,0,9.58,9.58A9.58,9.58,0,0,0,530.42,188.2Zm0,15.32a5.75,5.75,0,1,1,5.75-5.74A5.74,5.74,0,0,1,530.42,203.52Z"/><path class="cls-7" d="M540.42,160.2A12.58,12.58,0,1,0,553,172.78,12.59,12.59,0,0,0,540.42,160.2Zm0,20.12a7.55,7.55,0,1,1,7.55-7.54A7.55,7.55,0,0,1,540.42,180.32Z"/><path class="cls-7" d="M593.42,118.2A12.58,12.58,0,1,0,606,130.78,12.59,12.59,0,0,0,593.42,118.2Zm0,20.12a7.55,7.55,0,1,1,7.55-7.54A7.55,7.55,0,0,1,593.42,138.32Z"/><path class="cls-7" d="M613.92,137.2a8.08,8.08,0,1,0,8.08,8.08A8.08,8.08,0,0,0,613.92,137.2Zm0,12.92a4.85,4.85,0,1,1,4.85-4.84A4.84,4.84,0,0,1,613.92,150.12Z"/><path class="cls-7" d="M679.92,144.2a8.08,8.08,0,1,0,8.08,8.08A8.08,8.08,0,0,0,679.92,144.2Zm0,12.92a4.85,4.85,0,1,1,4.85-4.84A4.84,4.84,0,0,1,679.92,157.12Z"/><path class="cls-7" d="M706,131.28a12.08,12.08,0,1,0-12.08,12.07A12.09,12.09,0,0,0,706,131.28Zm-12.08,7.24a7.25,7.25,0,1,1,7.25-7.24A7.25,7.25,0,0,1,693.92,138.52Z"/><path class="cls-7" d="M717.75,142.2a20.9,20.9,0,1,0,20.9,20.9A20.92,20.92,0,0,0,717.75,142.2Zm0,33.44a12.54,12.54,0,1,1,12.54-12.54A12.55,12.55,0,0,1,717.75,175.64Z"/><path class="cls-7" d="M560.92,179.2a6.08,6.08,0,1,0,6.08,6.08A6.08,6.08,0,0,0,560.92,179.2Zm0,9.72a3.65,3.65,0,1,1,3.65-3.64A3.64,3.64,0,0,1,560.92,188.92Z"/><path class="cls-7" d="M594.92,149.2a6.08,6.08,0,1,0,6.08,6.08A6.08,6.08,0,0,0,594.92,149.2Zm0,9.72a3.65,3.65,0,1,1,3.65-3.64A3.64,3.64,0,0,1,594.92,158.92Z"/><path class="cls-7" d="M624.92,119.2a6.08,6.08,0,1,0,6.08,6.08A6.08,6.08,0,0,0,624.92,119.2Zm0,9.72a3.65,3.65,0,1,1,3.65-3.64A3.64,3.64,0,0,1,624.92,128.92Z"/><path class="cls-7" d="M449.92,176.2a6.08,6.08,0,1,0,6.08,6.08A6.08,6.08,0,0,0,449.92,176.2Zm0,9.72a3.65,3.65,0,1,1,3.65-3.64A3.64,3.64,0,0,1,449.92,185.92Z"/><path class="cls-7" d="M491.92,144.2a6.08,6.08,0,1,0,6.08,6.08A6.08,6.08,0,0,0,491.92,144.2Zm0,9.72a3.65,3.65,0,1,1,3.65-3.64A3.64,3.64,0,0,1,491.92,153.92Z"/><path class="cls-7" d="M478.42,172.7A15.58,15.58,0,1,0,494,188.28,15.58,15.58,0,0,0,478.42,172.7Zm0,24.92a9.35,9.35,0,1,1,9.35-9.34A9.35,9.35,0,0,1,478.42,197.62Z"/><path class="cls-7" d="M237.42,234.2a9.58,9.58,0,1,0,9.58,9.58A9.58,9.58,0,0,0,237.42,234.2Zm0,15.32a5.75,5.75,0,1,1,5.75-5.74A5.74,5.74,0,0,1,237.42,249.52Z"/><path class="cls-7" d="M128.92,251.7a6.08,6.08,0,1,0,6.08,6.08A6.08,6.08,0,0,0,128.92,251.7Zm0,9.72a3.65,3.65,0,1,1,3.65-3.64A3.64,3.64,0,0,1,128.92,261.42Z"/><path class="cls-7" d="M233.92,229.85a6.08,6.08,0,1,0-6.07-6.07A6.08,6.08,0,0,0,233.92,229.85Zm0-9.72a3.65,3.65,0,1,1-3.64,3.65A3.66,3.66,0,0,1,233.92,220.13Z"/><path class="cls-7" d="M11.21,268.82a24.64,24.64,0,1,0,24.64,24.64A24.66,24.66,0,0,0,11.21,268.82Zm0,42.24a17.6,17.6,0,1,1,17.6-17.6A17.61,17.61,0,0,1,11.21,311.06Z"/><path class="cls-7" d="M359.21,208.82a24.64,24.64,0,1,0,24.64,24.64A24.66,24.66,0,0,0,359.21,208.82Zm0,42.24a17.6,17.6,0,1,1,17.6-17.6A17.61,17.61,0,0,1,359.21,251.06Z"/></g></g></g></g></g></svg>